<svg width="72" height="72" viewBox="0 0 72 72" fill="none" xmlns="http://www.w3.org/2000/svg">
<path d="M58.793 40.1817C57.625 39.0138 56.2231 38.1063 54.6794 37.5188C55.6328 36.9315 56.4528 36.1514 57.0869 35.2285C57.721 34.3056 58.1552 33.2604 58.3616 32.1598C58.568 31.0593 58.5421 29.9278 58.2854 28.8378C58.0288 27.7479 57.5472 26.7237 56.8715 25.8308C56.1957 24.938 55.3408 24.1963 54.3616 23.6533C53.3823 23.1102 52.3004 22.7779 51.1851 22.6776C50.0699 22.5774 48.946 22.7113 47.8856 23.0709C46.8252 23.4305 45.8517 24.0078 45.0275 24.7658C44.4163 22.8513 43.2124 21.1807 41.5895 19.9952C39.9667 18.8098 38.0091 18.1709 35.9994 18.1709C33.9897 18.1709 32.032 18.8098 30.4092 19.9952C28.7864 21.1807 27.5824 22.8513 26.9713 24.7658C26.1477 23.9998 25.1727 23.4152 24.109 23.0497C23.0454 22.6842 21.9169 22.546 20.7965 22.6439C19.6761 22.7419 18.5887 23.0739 17.6047 23.6185C16.6207 24.1631 15.7618 24.9081 15.0838 25.8054C14.4057 26.7027 13.9235 27.7322 13.6683 28.8276C13.4131 29.9229 13.3906 31.0596 13.6023 32.1642C13.8139 33.2688 14.255 34.3167 14.897 35.2401C15.5391 36.1635 16.3677 36.9419 17.3294 37.525C15.1075 38.3741 13.1951 39.8769 11.8447 41.8352C10.4944 43.7934 9.7694 46.115 9.7655 48.4937V51.6651C9.7655 51.9262 9.86921 52.1766 10.0538 52.3612C10.2384 52.5458 10.4888 52.6495 10.7499 52.6495H22.0713V52.8452C22.0712 52.9745 22.0967 53.1026 22.1461 53.222C22.1955 53.3415 22.268 53.45 22.3595 53.5415C22.4509 53.6329 22.5594 53.7054 22.6789 53.7548C22.7984 53.8043 22.9264 53.8297 23.0557 53.8296H48.9442C49.0735 53.8297 49.2015 53.8043 49.321 53.7548C49.4404 53.7054 49.549 53.6329 49.6404 53.5415C49.7318 53.45 49.8043 53.3415 49.8538 53.222C49.9032 53.1026 49.9286 52.9745 49.9286 52.8452V52.6501H61.25C61.5111 52.6501 61.7615 52.5463 61.9461 52.3617C62.1307 52.1771 62.2344 51.9267 62.2344 51.6657V48.4932C62.2389 46.949 61.937 45.4194 61.3463 43.9927C60.7556 42.566 59.8878 41.2707 58.793 40.1817ZM50.4815 24.6167C51.6315 24.6206 52.7568 24.9516 53.7257 25.5711C54.6947 26.1905 55.4675 27.0728 55.9538 28.115C56.4401 29.1571 56.6199 30.3161 56.4723 31.4566C56.3246 32.5972 55.8555 33.6722 55.1197 34.5561C54.384 35.44 53.4119 36.0963 52.3171 36.4485C51.2223 36.8007 50.0499 36.8341 48.9368 36.545C47.8237 36.2558 46.8159 35.6559 46.0309 34.8154C45.246 33.9749 44.7163 32.9284 44.5038 31.7982C45.1468 30.5001 45.4822 29.0714 45.4843 27.6227C45.4843 27.4984 45.4741 27.3792 45.4691 27.256C46.0261 26.4408 46.774 25.7741 47.6477 25.3141C48.5213 24.8541 49.4942 24.6147 50.4815 24.6167ZM45.1169 38.0369C43.858 37.0102 42.4174 36.2292 40.8701 35.7346C41.7022 35.2366 42.4529 34.6138 43.0959 33.8879C43.7636 35.3944 44.8753 36.6612 46.2824 37.5188C45.8847 37.6699 45.4956 37.8429 45.1169 38.0369ZM35.9999 20.1375C37.8868 20.1413 39.7035 20.8531 41.0907 22.1321C42.478 23.4111 43.3346 25.1642 43.4913 27.0445C43.5076 27.2352 43.5155 27.4287 43.5155 27.6227C43.5155 29.616 42.7237 31.5276 41.3142 32.937C39.9048 34.3465 37.9932 35.1383 35.9999 35.1383C34.0067 35.1383 32.0951 34.3465 30.6856 32.937C29.2762 31.5276 28.4844 29.616 28.4844 27.6227C28.4844 27.4287 28.4923 27.2352 28.5091 27.0366C28.6673 25.1576 29.5246 23.4064 30.9116 22.1289C32.2986 20.8515 34.1143 20.1409 35.9999 20.1375ZM26.8829 38.0369C26.5043 37.8428 26.1152 37.6698 25.7174 37.5188C27.1249 36.6606 28.2367 35.393 28.904 33.8856C29.547 34.6115 30.2977 35.2343 31.1298 35.7323C29.5823 36.2277 28.1417 37.0094 26.8829 38.0369ZM15.4288 30.6782C15.4339 29.3813 15.8532 28.12 16.6255 27.0781C17.3978 26.0362 18.4828 25.2682 19.7222 24.8862C20.9616 24.5042 22.2906 24.5281 23.5154 24.9543C24.7403 25.3806 25.797 26.187 26.5314 27.256C26.5263 27.3786 26.5156 27.5001 26.5156 27.6227C26.5175 29.0714 26.853 30.5001 27.4961 31.7982C27.2117 33.2842 26.3841 34.6111 25.1747 35.5203C23.9652 36.4294 22.4606 36.8556 20.9541 36.7157C19.4475 36.5759 18.047 35.8801 17.0255 34.764C16.0041 33.6478 15.4348 32.1912 15.4288 30.6782ZM11.7343 50.6813V48.4932C11.7346 46.8761 12.1355 45.2843 12.9013 43.8601C13.6671 42.4358 14.7738 41.2235 16.1225 40.3315C17.4713 39.4394 19.0201 38.8955 20.6304 38.7482C22.2408 38.6009 23.8625 38.8549 25.3507 39.4875C23.2411 41.871 22.0749 44.9429 22.0713 48.1259V50.6813H11.7343ZM47.9593 51.8625H24.0401V48.1275C24.0399 46.676 24.3257 45.2387 24.8811 43.8977C25.4365 42.5566 26.2506 41.3381 27.2769 40.3117C28.3033 39.2853 29.5217 38.4711 30.8628 37.9157C32.2038 37.3602 33.6411 37.0744 35.0926 37.0744H36.9073C38.3588 37.0742 39.7962 37.36 41.1373 37.9154C42.4784 38.4708 43.6969 39.2849 44.7233 40.3114C45.7497 41.3378 46.5638 42.5564 47.1191 43.8975C47.6744 45.2386 47.9601 46.676 47.9598 48.1275L47.9593 51.8625ZM60.2651 50.6813H49.9286V48.1275C49.9252 44.9442 48.7592 41.8716 46.6498 39.4875C48.1378 38.8539 49.7598 38.599 51.3706 38.7458C52.9813 38.8926 54.5305 39.4365 55.8795 40.3287C57.2285 41.221 58.3353 42.4338 59.1007 43.8586C59.8662 45.2834 60.2664 46.8758 60.2656 48.4932L60.2651 50.6813Z" fill="#1B1E6D"/>
</svg>
